M48
;Layer_Color=9474304
;FILE_FORMAT=2:4
INCH,LZ
;TYPE=PLATED
T1F00S00C0.0160
%
T01
X00262Y00413
X00431Y00412
X00553
X00532Y00477
X00636Y00479
X00673Y0048
X00721Y00593
X0079Y00643
X00791Y00539
X0079Y00412
X00679Y00671
Y00718
X00651Y00774
X00611Y00736
X0061Y00671
X00542Y0067
X00531Y00591
X00444Y00584
X00471Y00535
X00364Y00585
X00328Y00554
X00262Y00603
Y00677
X00328Y00693
X00295Y00731
X00326Y00776
X00295Y00819
X00318Y0092
X0035Y00955
X00384
X00417Y00919
X00501Y00949
X00506Y00859
X00542Y00796
X00602Y0082
X00692
X00734Y00861
X0079Y00954
X00674Y00955
X00595Y00952
X00584Y00902
X00642Y01029
X00673Y0115
X0079
X00421
X00384Y01114
X00453Y01064
X00262Y01007
Y0115
M30
