%FSLAX24Y24*%
%MOIN*%
G70*
G01*
G75*
G04 Layer_Color=65535*
%ADD10C,0.0080*%
%ADD11R,0.0200X0.0250*%
%ADD12R,0.0250X0.0200*%
%ADD13R,0.0472X0.0433*%
%ADD14R,0.0110X0.0354*%
%ADD15R,0.0354X0.0110*%
%ADD16R,0.0354X0.0110*%
%ADD17R,0.0591X0.0512*%
%ADD18C,0.0100*%
%ADD19C,0.0300*%
%ADD20C,0.0060*%
%ADD21R,0.0510X0.0300*%
%ADD22C,0.0320*%
%ADD23C,0.0050*%
%ADD24C,0.0043*%
D23*
X6580Y4980D02*
X6860Y4980D01*
X6580Y5820D02*
X6860Y5820D01*
X6860Y4980D02*
X6860Y5260D01*
X6580Y4980D02*
X6580Y5260D01*
X6580Y5540D02*
X6580Y5820D01*
X6860Y5540D02*
X6860Y5820D01*
X6230Y4980D02*
X6510Y4980D01*
X6230Y5820D02*
X6510Y5820D01*
X6510Y4980D02*
X6510Y5260D01*
X6230Y4980D02*
X6230Y5260D01*
X6230Y5540D02*
X6230Y5820D01*
X6510Y5540D02*
X6510Y5820D01*
X6280Y9230D02*
X6560Y9230D01*
X6280Y10070D02*
X6560Y10070D01*
X6560Y9230D02*
X6560Y9510D01*
X6280Y9230D02*
X6280Y9510D01*
X6280Y9790D02*
X6280Y10070D01*
X6560Y9790D02*
X6560Y10070D01*
X6050Y11000D02*
X6050Y11280D01*
X6890Y11000D02*
X6890Y11280D01*
X6050Y11000D02*
X6330Y11000D01*
X6050Y11280D02*
X6330Y11280D01*
X6610Y11280D02*
X6890Y11280D01*
X6610Y11000D02*
X6890Y11000D01*
X4890Y11010D02*
X4890Y11290D01*
X4050Y11010D02*
X4050Y11290D01*
X4610Y11290D02*
X4890Y11290D01*
X4610Y11010D02*
X4890Y11010D01*
X4050Y11010D02*
X4330Y11010D01*
X4050Y11290D02*
X4330Y11290D01*
X4500Y4050D02*
X4500Y4330D01*
X5340Y4050D02*
X5340Y4330D01*
X4500Y4050D02*
X4780Y4050D01*
X4500Y4330D02*
X4780Y4330D01*
X5060Y4330D02*
X5340Y4330D01*
X5060Y4050D02*
X5340Y4050D01*
X4630Y6380D02*
X4910Y6380D01*
X4630Y5540D02*
X4910Y5540D01*
X4630Y6100D02*
X4630Y6380D01*
X4910Y6100D02*
X4910Y6380D01*
X4910Y5540D02*
X4910Y5820D01*
X4630Y5540D02*
X4630Y5820D01*
X4340Y6260D02*
X4340Y6540D01*
X3500Y6260D02*
X3500Y6540D01*
X4060Y6540D02*
X4340Y6540D01*
X4060Y6260D02*
X4340Y6260D01*
X3500Y6260D02*
X3780Y6260D01*
X3500Y6540D02*
X3780Y6540D01*
X3160Y6560D02*
X3440Y6560D01*
X3160Y5720D02*
X3440Y5720D01*
X3160Y6280D02*
X3160Y6560D01*
X3440Y6280D02*
X3440Y6560D01*
X3440Y5720D02*
X3440Y6000D01*
X3160Y5720D02*
X3160Y6000D01*
X4030Y6630D02*
X4310Y6630D01*
X4030Y7470D02*
X4310Y7470D01*
X4310Y6630D02*
X4310Y6910D01*
X4030Y6630D02*
X4030Y6910D01*
X4030Y7190D02*
X4030Y7470D01*
X4310Y7190D02*
X4310Y7470D01*
X3700Y8520D02*
X3980Y8520D01*
X3700Y9360D02*
X3980Y9360D01*
X3980Y8520D02*
X3980Y8800D01*
X3700Y8520D02*
X3700Y8800D01*
X3700Y9080D02*
X3700Y9360D01*
X3980Y9080D02*
X3980Y9360D01*
X3360Y8520D02*
X3640Y8520D01*
X3360Y9360D02*
X3640Y9360D01*
X3640Y8520D02*
X3640Y8800D01*
X3360Y8520D02*
X3360Y8800D01*
X3360Y9080D02*
X3360Y9360D01*
X3640Y9080D02*
X3640Y9360D01*
X4040Y8860D02*
X4320Y8860D01*
X4040Y8020D02*
X4320Y8020D01*
X4040Y8580D02*
X4040Y8860D01*
X4320Y8580D02*
X4320Y8860D01*
X4320Y8020D02*
X4320Y8300D01*
X4040Y8020D02*
X4040Y8300D01*
X3130Y7170D02*
X3130Y7450D01*
X3970Y7170D02*
X3970Y7450D01*
X3130Y7170D02*
X3410Y7170D01*
X3130Y7450D02*
X3410Y7450D01*
X3690Y7450D02*
X3970Y7450D01*
X3690Y7170D02*
X3970Y7170D01*
X3970Y8050D02*
X3970Y8330D01*
X3130Y8050D02*
X3130Y8330D01*
X3690Y8330D02*
X3970Y8330D01*
X3690Y8050D02*
X3970Y8050D01*
X3130Y8050D02*
X3410Y8050D01*
X3130Y8330D02*
X3410Y8330D01*
X4380Y8170D02*
X4660Y8170D01*
X4380Y7330D02*
X4660Y7330D01*
X4380Y7890D02*
X4380Y8170D01*
X4660Y7890D02*
X4660Y8170D01*
X4660Y7330D02*
X4660Y7610D01*
X4380Y7330D02*
X4380Y7610D01*
X5890Y11000D02*
X5890Y11280D01*
X5050Y11000D02*
X5050Y11280D01*
X5610Y11280D02*
X5890Y11280D01*
X5610Y11000D02*
X5890Y11000D01*
X5050Y11000D02*
X5330Y11000D01*
X5050Y11280D02*
X5330Y11280D01*
X7660Y8230D02*
X7940Y8230D01*
X7660Y7390D02*
X7940Y7390D01*
X7660Y7950D02*
X7660Y8230D01*
X7940Y7950D02*
X7940Y8230D01*
X7940Y7390D02*
X7940Y7670D01*
X7660Y7390D02*
X7660Y7670D01*
X7177Y6293D02*
X7277Y6293D01*
X7327Y6343D02*
X7327Y6443D01*
X7277Y6293D02*
X7327Y6343D01*
X5023Y8457D02*
X5023Y8607D01*
X5173Y8607D01*
X5023Y6293D02*
X5173Y6293D01*
X5023Y6293D02*
X5023Y6443D01*
X7177Y8607D02*
X7327Y8607D01*
X7327Y8457D02*
X7327Y8607D01*
X5485Y4507D02*
X6155Y4507D01*
X6155Y5038D01*
X5485Y4507D02*
X5485Y5038D01*
X5485Y5845D02*
X6155Y5845D01*
X5485Y5314D02*
X5485Y5845D01*
X6155Y5314D02*
X6155Y5845D01*
X5910Y4250D02*
X5860Y4200D01*
X5860Y4100D01*
X5910Y4050D01*
X6110Y4050D01*
X6160Y4100D01*
X6160Y4200D01*
X6110Y4250D01*
X6160Y4350D02*
X6160Y4450D01*
X6160Y4400D01*
X5860Y4400D01*
X5910Y4350D01*
X6270Y4250D02*
X6220Y4200D01*
X6220Y4100D01*
X6270Y4050D01*
X6470Y4050D01*
X6520Y4100D01*
X6520Y4200D01*
X6470Y4250D01*
X6520Y4550D02*
X6520Y4350D01*
X6320Y4550D01*
X6270Y4550D01*
X6220Y4500D01*
X6220Y4400D01*
X6270Y4350D01*
X6630Y4240D02*
X6580Y4190D01*
X6580Y4090D01*
X6630Y4040D01*
X6830Y4040D01*
X6880Y4090D01*
X6880Y4190D01*
X6830Y4240D01*
X6830Y4340D02*
X6880Y4390D01*
X6880Y4490D01*
X6830Y4540D01*
X6630Y4540D01*
X6580Y4490D01*
X6580Y4390D01*
X6630Y4340D01*
X6680Y4340D01*
X6730Y4390D01*
X6730Y4540D01*
X3650Y7040D02*
X3600Y7090D01*
X3500Y7090D01*
X3450Y7040D01*
X3450Y6840D01*
X3500Y6790D01*
X3600Y6790D01*
X3650Y6840D01*
X3950Y7090D02*
X3850Y7040D01*
X3750Y6940D01*
X3750Y6840D01*
X3800Y6790D01*
X3900Y6790D01*
X3950Y6840D01*
X3950Y6890D01*
X3900Y6940D01*
X3750Y6940D01*
X4050Y6110D02*
X4000Y6160D01*
X3900Y6160D01*
X3850Y6110D01*
X3850Y5910D01*
X3900Y5860D01*
X4000Y5860D01*
X4050Y5910D01*
X4150Y6160D02*
X4350Y6160D01*
X4350Y6110D01*
X4150Y5910D01*
X4150Y5860D01*
X3640Y7940D02*
X3590Y7990D01*
X3490Y7990D01*
X3440Y7940D01*
X3440Y7740D01*
X3490Y7690D01*
X3590Y7690D01*
X3640Y7740D01*
X3940Y7990D02*
X3740Y7990D01*
X3740Y7840D01*
X3840Y7890D01*
X3890Y7890D01*
X3940Y7840D01*
X3940Y7740D01*
X3890Y7690D01*
X3790Y7690D01*
X3740Y7740D01*
X3410Y9950D02*
X3360Y9900D01*
X3360Y9800D01*
X3410Y9750D01*
X3610Y9750D01*
X3660Y9800D01*
X3660Y9900D01*
X3610Y9950D01*
X3410Y10050D02*
X3360Y10100D01*
X3360Y10200D01*
X3410Y10250D01*
X3460Y10250D01*
X3510Y10200D01*
X3510Y10150D01*
X3510Y10200D01*
X3560Y10250D01*
X3610Y10250D01*
X3660Y10200D01*
X3660Y10100D01*
X3610Y10050D01*
X3770Y9950D02*
X3720Y9900D01*
X3720Y9800D01*
X3770Y9750D01*
X3970Y9750D01*
X4020Y9800D01*
X4020Y9900D01*
X3970Y9950D01*
X4020Y10200D02*
X3720Y10200D01*
X3870Y10050D01*
X3870Y10250D01*
X6840Y10030D02*
X6790Y10080D01*
X6690Y10080D01*
X6640Y10030D01*
X6640Y9830D01*
X6690Y9780D01*
X6790Y9780D01*
X6840Y9830D01*
X6940Y9780D02*
X7040Y9780D01*
X6990Y9780D01*
X6990Y10080D01*
X6940Y10030D01*
X7190Y10030D02*
X7240Y10080D01*
X7340Y10080D01*
X7390Y10030D01*
X7390Y9830D01*
X7340Y9780D01*
X7240Y9780D01*
X7190Y9830D01*
X7190Y10030D01*
X6630Y10870D02*
X6580Y10920D01*
X6480Y10920D01*
X6430Y10870D01*
X6430Y10670D01*
X6480Y10620D01*
X6580Y10620D01*
X6630Y10670D01*
X6730Y10620D02*
X6830Y10620D01*
X6780Y10620D01*
X6780Y10920D01*
X6730Y10870D01*
X6980Y10620D02*
X7080Y10620D01*
X7030Y10620D01*
X7030Y10920D01*
X6980Y10870D01*
X3780Y10890D02*
X3730Y10940D01*
X3630Y10940D01*
X3580Y10890D01*
X3580Y10690D01*
X3630Y10640D01*
X3730Y10640D01*
X3780Y10690D01*
X3880Y10640D02*
X3980Y10640D01*
X3930Y10640D01*
X3930Y10940D01*
X3880Y10890D01*
X4330Y10640D02*
X4130Y10640D01*
X4330Y10840D01*
X4330Y10890D01*
X4280Y10940D01*
X4180Y10940D01*
X4130Y10890D01*
X3680Y5600D02*
X3630Y5650D01*
X3530Y5650D01*
X3480Y5600D01*
X3480Y5400D01*
X3530Y5350D01*
X3630Y5350D01*
X3680Y5400D01*
X3780Y5600D02*
X3830Y5650D01*
X3930Y5650D01*
X3980Y5600D01*
X3980Y5550D01*
X3930Y5500D01*
X3980Y5450D01*
X3980Y5400D01*
X3930Y5350D01*
X3830Y5350D01*
X3780Y5400D01*
X3780Y5450D01*
X3830Y5500D01*
X3780Y5550D01*
X3780Y5600D01*
X3830Y5500D02*
X3930Y5500D01*
X4380Y6660D02*
X4680Y6660D01*
X4680Y6860D01*
X4430Y6960D02*
X4380Y7010D01*
X4380Y7110D01*
X4430Y7160D01*
X4480Y7160D01*
X4530Y7110D01*
X4530Y7060D01*
X4530Y7110D01*
X4580Y7160D01*
X4630Y7160D01*
X4680Y7110D01*
X4680Y7010D01*
X4630Y6960D01*
X4390Y8260D02*
X4690Y8260D01*
X4690Y8460D01*
X4690Y8560D02*
X4690Y8660D01*
X4690Y8610D01*
X4390Y8610D01*
X4440Y8560D01*
X4300Y8990D02*
X4600Y8990D01*
X4600Y9190D01*
X4600Y9490D02*
X4600Y9290D01*
X4400Y9490D01*
X4350Y9490D01*
X4300Y9440D01*
X4300Y9340D01*
X4350Y9290D01*
X4510Y4390D02*
X4510Y4690D01*
X4660Y4690D01*
X4710Y4640D01*
X4710Y4540D01*
X4660Y4490D01*
X4510Y4490D01*
X4610Y4490D02*
X4710Y4390D01*
X5010Y4390D02*
X4810Y4390D01*
X5010Y4590D01*
X5010Y4640D01*
X4960Y4690D01*
X4860Y4690D01*
X4810Y4640D01*
X5290Y5320D02*
X4990Y5320D01*
X4990Y5470D01*
X5040Y5520D01*
X5140Y5520D01*
X5190Y5470D01*
X5190Y5320D01*
X5190Y5420D02*
X5290Y5520D01*
X5290Y5620D02*
X5290Y5720D01*
X5290Y5670D01*
X4990Y5670D01*
X5040Y5620D01*
X5210Y11330D02*
X5210Y11630D01*
X5360Y11630D01*
X5410Y11580D01*
X5410Y11480D01*
X5360Y11430D01*
X5210Y11430D01*
X5310Y11430D02*
X5410Y11330D01*
X5660Y11330D02*
X5660Y11630D01*
X5510Y11480D01*
X5710Y11480D01*
X4860Y9130D02*
X4860Y8880D01*
X4910Y8830D01*
X5010Y8830D01*
X5060Y8880D01*
X5060Y9130D01*
X5160Y8830D02*
X5260Y8830D01*
X5210Y8830D01*
X5210Y9130D01*
X5160Y9080D01*
X4220Y10430D02*
X4420Y10130D01*
X4420Y10430D02*
X4220Y10130D01*
X4520Y10130D02*
X4620Y10130D01*
X4570Y10130D01*
X4570Y10430D01*
X4520Y10380D01*
X7940Y8340D02*
X7640Y8340D01*
X7640Y8490D01*
X7690Y8540D01*
X7790Y8540D01*
X7840Y8490D01*
X7840Y8340D01*
X7840Y8440D02*
X7940Y8540D01*
X7690Y8640D02*
X7640Y8690D01*
X7640Y8790D01*
X7690Y8840D01*
X7740Y8840D01*
X7790Y8790D01*
X7790Y8740D01*
X7790Y8790D01*
X7840Y8840D01*
X7890Y8840D01*
X7940Y8790D01*
X7940Y8690D01*
X7890Y8640D01*
X6310Y10730D02*
X6360Y10730D01*
X6335Y10730D01*
X6335Y10880D01*
X6310Y10855D01*
D24*
X6180Y10221D02*
X6180Y10358D01*
X5000Y10891D02*
X5950Y10891D01*
X4770Y10235D02*
X4770Y10381D01*
X5000Y9701D02*
X5950Y9701D01*
M02*
