%FSLAX24Y24*%
%MOIN*%
G70*
G01*
G75*
G04 Layer_Color=8421504*
%ADD10C,0.0080*%
%ADD11R,0.0200X0.0250*%
%ADD12R,0.0250X0.0200*%
%ADD13R,0.0472X0.0433*%
%ADD14R,0.0110X0.0354*%
%ADD15R,0.0354X0.0110*%
%ADD16R,0.0354X0.0110*%
%ADD17R,0.0591X0.0512*%
%ADD18C,0.0100*%
%ADD19C,0.0300*%
%ADD20C,0.0060*%
%ADD21R,0.0510X0.0300*%
%ADD22C,0.0320*%
%ADD23C,0.0050*%
%ADD24C,0.0043*%
D11*
X6720Y5150D02*
D03*
X6720Y5650D02*
D03*
X6370Y5150D02*
D03*
X6370Y5650D02*
D03*
X6420Y9400D02*
D03*
X6420Y9900D02*
D03*
X4770Y6210D02*
D03*
X4770Y5710D02*
D03*
X3300Y6390D02*
D03*
X3300Y5890D02*
D03*
X4170Y6800D02*
D03*
X4170Y7300D02*
D03*
X3840Y8690D02*
D03*
X3840Y9190D02*
D03*
X3500Y8690D02*
D03*
X3500Y9190D02*
D03*
X4180Y8690D02*
D03*
X4180Y8190D02*
D03*
X4520Y8000D02*
D03*
X4520Y7500D02*
D03*
X7800Y8060D02*
D03*
X7800Y7560D02*
D03*
D12*
X6220Y11140D02*
D03*
X6720Y11140D02*
D03*
X4720Y11150D02*
D03*
X4220Y11150D02*
D03*
X4670Y4190D02*
D03*
X5170Y4190D02*
D03*
X4170Y6400D02*
D03*
X3670Y6400D02*
D03*
X3300Y7310D02*
D03*
X3800Y7310D02*
D03*
X3800Y8190D02*
D03*
X3300Y8190D02*
D03*
X5720Y11140D02*
D03*
X5220Y11140D02*
D03*
D13*
X5940Y9949D02*
D03*
X5940Y10651D02*
D03*
X5000Y9951D02*
D03*
X5000Y10651D02*
D03*
D14*
X6180Y6302D02*
D03*
X5786Y6302D02*
D03*
X5392Y6302D02*
D03*
X5392Y8598D02*
D03*
X6967Y6302D02*
D03*
X5983Y6302D02*
D03*
X6770Y6302D02*
D03*
X6574Y6302D02*
D03*
X6377Y6302D02*
D03*
X5589Y6302D02*
D03*
X5589Y8598D02*
D03*
X6377Y8598D02*
D03*
X6574Y8598D02*
D03*
X5786Y8598D02*
D03*
X5983Y8598D02*
D03*
X6180Y8598D02*
D03*
X6770Y8598D02*
D03*
X6967Y8598D02*
D03*
D15*
X5022Y8247D02*
D03*
X7318Y8247D02*
D03*
X7318Y6672D02*
D03*
X7318Y8050D02*
D03*
X7318Y7263D02*
D03*
X7318Y7066D02*
D03*
X7318Y7854D02*
D03*
X7318Y7657D02*
D03*
X7318Y7460D02*
D03*
X5022Y6672D02*
D03*
X5022Y7460D02*
D03*
X5022Y7657D02*
D03*
X5022Y6869D02*
D03*
X5022Y7066D02*
D03*
X5022Y7263D02*
D03*
X5022Y7854D02*
D03*
X5022Y8050D02*
D03*
D16*
X7318Y6869D02*
D03*
D17*
X5820Y4802D02*
D03*
X5820Y5550D02*
D03*
M02*
