%FSLAX24Y24*%
%MOIN*%
G70*
G01*
G75*
G04 Layer_Physical_Order=2*
G04 Layer_Color=16711680*
%ADD10C,0.0080*%
%ADD11R,0.0200X0.0250*%
%ADD12R,0.0250X0.0200*%
%ADD13R,0.0472X0.0433*%
%ADD14R,0.0110X0.0354*%
%ADD15R,0.0354X0.0110*%
%ADD16R,0.0354X0.0110*%
%ADD17R,0.0591X0.0512*%
%ADD18C,0.0100*%
%ADD19C,0.0300*%
%ADD20C,0.0060*%
%ADD21R,0.0510X0.0300*%
%ADD22C,0.0320*%
D10*
X2500Y7150D02*
X8030Y7150D01*
X2500Y7010D02*
X8030Y7010D01*
X2500Y7080D02*
X8030Y7080D01*
X2500Y7360D02*
X8030Y7360D01*
X2500Y7220D02*
X8030Y7220D01*
X2500Y7290D02*
X8030Y7290D01*
X2500Y6730D02*
X8030Y6730D01*
X2500Y6590D02*
X8030Y6590D01*
X2500Y6660D02*
X8030Y6660D01*
X2500Y6940D02*
X8030Y6940D01*
X2500Y6800D02*
X8030Y6800D01*
X2500Y6870D02*
X8030Y6870D01*
X2500Y7990D02*
X8030Y7990D01*
X2500Y7850D02*
X8030Y7850D01*
X2500Y7920D02*
X8030Y7920D01*
X2500Y8200D02*
X8030Y8200D01*
X2500Y8060D02*
X8030Y8060D01*
X2500Y8130D02*
X8030Y8130D01*
X2500Y7570D02*
X8030Y7570D01*
X2500Y7430D02*
X8030Y7430D01*
X2500Y7500D02*
X8030Y7500D01*
X2500Y7780D02*
X8030Y7780D01*
X2500Y7640D02*
X8030Y7640D01*
X2500Y7710D02*
X8030Y7710D01*
X2500Y5470D02*
X8030Y5470D01*
X2500Y5260D02*
X8030Y5260D01*
X2500Y5330D02*
X8030Y5330D01*
X2500Y5680D02*
X8030Y5680D01*
X2500Y5540D02*
X8030Y5540D01*
X2500Y5610D02*
X8030Y5610D01*
X2500Y4980D02*
X8030Y4980D01*
X2500Y4560D02*
X8030Y4560D01*
X2500Y4910D02*
X8030Y4910D01*
X2500Y5190D02*
X8030Y5190D01*
X2500Y5050D02*
X8030Y5050D01*
X2500Y5120D02*
X8030Y5120D01*
X2500Y6310D02*
X8030Y6310D01*
X2500Y6170D02*
X8030Y6170D01*
X2500Y6240D02*
X8030Y6240D01*
X2500Y6520D02*
X8030Y6520D01*
X2500Y6380D02*
X8030Y6380D01*
X2500Y6450D02*
X8030Y6450D01*
X2500Y5890D02*
X8030Y5890D01*
X2500Y5750D02*
X8030Y5750D01*
X2500Y5820D02*
X8030Y5820D01*
X2500Y6100D02*
X8030Y6100D01*
X2500Y5960D02*
X8030Y5960D01*
X2500Y6030D02*
X8030Y6030D01*
X2500Y10580D02*
X8030Y10580D01*
X2500Y10440D02*
X8030Y10440D01*
X2500Y10510D02*
X8030Y10510D01*
X2500Y10790D02*
X8030Y10790D01*
X2500Y10650D02*
X8030Y10650D01*
X2500Y10720D02*
X8030Y10720D01*
X2500Y10160D02*
X8030Y10160D01*
X2500Y10020D02*
X8030Y10020D01*
X2500Y10090D02*
X8030Y10090D01*
X2500Y10370D02*
X8030Y10370D01*
X2500Y10230D02*
X8030Y10230D01*
X2500Y10300D02*
X8030Y10300D01*
X2500Y11420D02*
X8030Y11420D01*
X2500Y11280D02*
X8030Y11280D01*
X2500Y11350D02*
X8030Y11350D01*
X2500Y11620D02*
X8030Y11620D01*
X2500Y11490D02*
X8030Y11490D01*
X2500Y11560D02*
X8030Y11560D01*
X2500Y11000D02*
X8030Y11000D01*
X2500Y10860D02*
X8030Y10860D01*
X2500Y10930D02*
X8030Y10930D01*
X2500Y11210D02*
X8030Y11210D01*
X2500Y11070D02*
X8030Y11070D01*
X2500Y11140D02*
X8030Y11140D01*
X2500Y8900D02*
X8030Y8900D01*
X2500Y8760D02*
X8030Y8760D01*
X2500Y8830D02*
X8030Y8830D01*
X2500Y9110D02*
X8030Y9110D01*
X2500Y8970D02*
X8030Y8970D01*
X2500Y9040D02*
X8030Y9040D01*
X2500Y8410D02*
X8030Y8410D01*
X2500Y8270D02*
X8030Y8270D01*
X2500Y8340D02*
X8030Y8340D01*
X2500Y8690D02*
X8030Y8690D01*
X2500Y8480D02*
X8030Y8480D01*
X2500Y8620D02*
X8030Y8620D01*
X2500Y9740D02*
X8030Y9740D01*
X2500Y9600D02*
X8030Y9600D01*
X2500Y9670D02*
X8030Y9670D01*
X2500Y9950D02*
X8030Y9950D01*
X2500Y9810D02*
X8030Y9810D01*
X2500Y9880D02*
X8030Y9880D01*
X2500Y9320D02*
X8030Y9320D01*
X2500Y9180D02*
X8030Y9180D01*
X2500Y9250D02*
X8030Y9250D01*
X2500Y9530D02*
X8030Y9530D01*
X2500Y9390D02*
X8030Y9390D01*
X2500Y9460D02*
X8030Y9460D01*
X3498Y4000D02*
X3498Y11620D01*
X3638Y4000D02*
X3638Y11620D01*
X3568Y4000D02*
X3568Y11620D01*
X3288Y4000D02*
X3288Y11620D01*
X3428Y4000D02*
X3428Y11620D01*
X3358Y4000D02*
X3358Y11620D01*
X3918Y4000D02*
X3918Y11620D01*
X4058Y4000D02*
X4058Y11620D01*
X3988Y4000D02*
X3988Y11620D01*
X3708Y4000D02*
X3708Y11620D01*
X3848Y4000D02*
X3848Y11620D01*
X3778Y4000D02*
X3778Y11620D01*
X2658Y4000D02*
X2658Y11620D01*
X2798Y4000D02*
X2798Y11620D01*
X2728Y4000D02*
X2728Y11620D01*
X2500Y4000D02*
X2500Y11620D01*
X2588Y4000D02*
X2588Y11620D01*
X2518Y4000D02*
X2518Y11620D01*
X3078Y4000D02*
X3078Y11620D01*
X3218Y4000D02*
X3218Y11620D01*
X3148Y4000D02*
X3148Y11620D01*
X2868Y4000D02*
X2868Y11620D01*
X3008Y4000D02*
X3008Y11620D01*
X2938Y4000D02*
X2938Y11620D01*
X5038Y4000D02*
X5038Y11620D01*
X5178Y4000D02*
X5178Y11620D01*
X5108Y4000D02*
X5108Y11620D01*
X4968Y4000D02*
X4968Y11620D01*
X2500Y4000D02*
X8030Y4000D01*
X2500Y4000D02*
X8030Y4000D01*
X7208Y4000D02*
X7208Y11620D01*
X7348Y4000D02*
X7348Y11620D01*
X7278Y4000D02*
X7278Y11620D01*
X6788Y4000D02*
X6788Y11620D01*
X7138Y4000D02*
X7138Y11620D01*
X7068Y4000D02*
X7068Y11620D01*
X4338Y4000D02*
X4338Y11620D01*
X4478Y4000D02*
X4478Y11620D01*
X4408Y4000D02*
X4408Y11620D01*
X4128Y4000D02*
X4128Y11620D01*
X4268Y4000D02*
X4268Y11620D01*
X4198Y4000D02*
X4198Y11620D01*
X4758Y4000D02*
X4758Y11620D01*
X4898Y4000D02*
X4898Y11620D01*
X4828Y4000D02*
X4828Y11620D01*
X4548Y4000D02*
X4548Y11620D01*
X4688Y4000D02*
X4688Y11620D01*
X4618Y4000D02*
X4618Y11620D01*
X6298Y4000D02*
X6298Y11620D01*
X6438Y4000D02*
X6438Y11620D01*
X6368Y4000D02*
X6368Y11620D01*
X6088Y4000D02*
X6088Y11620D01*
X6228Y4000D02*
X6228Y11620D01*
X6158Y4000D02*
X6158Y11620D01*
X6718Y4000D02*
X6718Y11620D01*
X6928Y4000D02*
X6928Y11620D01*
X6858Y4000D02*
X6858Y11620D01*
X6508Y4000D02*
X6508Y11620D01*
X6648Y4000D02*
X6648Y11620D01*
X6578Y4000D02*
X6578Y11620D01*
X5458Y4000D02*
X5458Y11620D01*
X5598Y4000D02*
X5598Y11620D01*
X5528Y4000D02*
X5528Y11620D01*
X5248Y4000D02*
X5248Y11620D01*
X5388Y4000D02*
X5388Y11620D01*
X5318Y4000D02*
X5318Y11620D01*
X5878Y4000D02*
X5878Y11620D01*
X6018Y4000D02*
X6018Y11620D01*
X5948Y4000D02*
X5948Y11620D01*
X5668Y4000D02*
X5668Y11620D01*
X5808Y4000D02*
X5808Y11620D01*
X5738Y4000D02*
X5738Y11620D01*
X2500Y4700D02*
X8030Y4700D01*
X2500Y4490D02*
X8030Y4490D01*
X2500Y4630D02*
X8030Y4630D01*
X2500Y5400D02*
X8030Y5400D01*
X2500Y4770D02*
X8030Y4770D01*
X2500Y4840D02*
X8030Y4840D01*
X2500Y4210D02*
X8030Y4210D01*
X2500Y4070D02*
X8030Y4070D01*
X2500Y4140D02*
X8030Y4140D01*
X2500Y4420D02*
X8030Y4420D01*
X2500Y4280D02*
X8030Y4280D01*
X2500Y4350D02*
X8030Y4350D01*
X7488Y4000D02*
X7488Y11620D01*
X7628Y4000D02*
X7628Y11620D01*
X7558Y4000D02*
X7558Y11620D01*
X6998Y4000D02*
X6998Y11620D01*
X2500Y8550D02*
X8030Y8550D01*
X7418Y4000D02*
X7418Y11620D01*
X7908Y4000D02*
X7908Y11620D01*
X8030Y4000D02*
X8030Y11620D01*
X7978Y4000D02*
X7978Y11620D01*
X7698Y4000D02*
X7698Y11620D01*
X7838Y4000D02*
X7838Y11620D01*
X7768Y4000D02*
X7768Y11620D01*
D22*
X3280Y6930D02*
D03*
X2950Y7310D02*
D03*
X7900Y9540D02*
D03*
X7910Y5390D02*
D03*
X4710Y5350D02*
D03*
X2620Y11500D02*
D03*
X3180Y9200D02*
D03*
X4170Y9190D02*
D03*
X3840Y9550D02*
D03*
X2620Y10070D02*
D03*
X3280Y5540D02*
D03*
X2620Y6030D02*
D03*
X3640Y5850D02*
D03*
X4440Y5840D02*
D03*
X2620Y4130D02*
D03*
X2950Y8190D02*
D03*
X3500Y9550D02*
D03*
X3260Y7760D02*
D03*
X5320Y4770D02*
D03*
X4310Y4120D02*
D03*
X6360Y4790D02*
D03*
X6730Y4800D02*
D03*
X5530Y4120D02*
D03*
X6790Y7180D02*
D03*
X6790Y6710D02*
D03*
X6100Y6710D02*
D03*
X5420Y6700D02*
D03*
X6110Y7360D02*
D03*
X5420Y7960D02*
D03*
X6510Y7740D02*
D03*
X6920Y8200D02*
D03*
X6020Y8200D02*
D03*
X5060Y8590D02*
D03*
X5840Y9020D02*
D03*
X6730Y11500D02*
D03*
X7900Y11500D02*
D03*
X6740Y9550D02*
D03*
X6420Y10290D02*
D03*
X4530Y10640D02*
D03*
X3840Y11140D02*
D03*
X4210Y11500D02*
D03*
X5010Y9490D02*
D03*
X7340Y8610D02*
D03*
X5950Y9520D02*
D03*
X7210Y5930D02*
D03*
X7900Y6430D02*
D03*
X7900Y4120D02*
D03*
X2620Y6770D02*
D03*
X5310Y5910D02*
D03*
M02*
