%FSLAX24Y24*%
%MOIN*%
G70*
G01*
G75*
G04 Layer_Color=65535*
%ADD10C,0.0070*%
%ADD11O,0.0354X0.0110*%
%ADD12O,0.0110X0.0354*%
%ADD13R,0.0512X0.0591*%
%ADD14R,0.0250X0.0200*%
%ADD15R,0.0433X0.0472*%
%ADD16R,0.0200X0.0250*%
%ADD17C,0.0060*%
%ADD18C,0.0100*%
%ADD19C,0.0300*%
%ADD20C,0.0320*%
%ADD21C,0.0050*%
%ADD22C,0.0043*%
D21*
X3700Y2790D02*
X3800D01*
X3850Y2840D02*
Y2940D01*
X3800Y2790D02*
X3850Y2840D01*
X1920Y4580D02*
Y4730D01*
X2070D01*
X1920Y2790D02*
X2070D01*
X1920D02*
Y2940D01*
X3700Y4730D02*
X3850D01*
Y4580D02*
Y4730D01*
X5680Y3370D02*
Y4050D01*
X4320Y3370D02*
Y4050D01*
X5120D02*
X5680D01*
X5120Y3370D02*
X5680D01*
X4320D02*
X4880D01*
X4320Y4050D02*
X4880D01*
X4580Y3330D02*
X4860D01*
X4580Y3050D02*
X4860D01*
X5140D02*
X5420D01*
X5140Y3330D02*
X5420D01*
X4580Y3050D02*
Y3330D01*
X5420Y3050D02*
Y3330D01*
X2660Y1370D02*
X2940D01*
X2660Y2210D02*
X2940D01*
Y1370D02*
Y1650D01*
X2660Y1370D02*
Y1650D01*
Y1930D02*
Y2210D01*
X2940Y1930D02*
Y2210D01*
X3010Y1370D02*
X3290D01*
X3010Y2210D02*
X3290D01*
Y1370D02*
Y1650D01*
X3010Y1370D02*
Y1650D01*
Y1930D02*
Y2210D01*
X3290Y1930D02*
Y2210D01*
X1760D02*
X2040D01*
X1760Y1370D02*
X2040D01*
X1760Y1930D02*
Y2210D01*
X2040Y1930D02*
Y2210D01*
Y1370D02*
Y1650D01*
X1760Y1370D02*
Y1650D01*
X2110Y1370D02*
X2390D01*
X2110Y2210D02*
X2390D01*
Y1370D02*
Y1650D01*
X2110Y1370D02*
Y1650D01*
Y1930D02*
Y2210D01*
X2390Y1930D02*
Y2210D01*
X5010Y1170D02*
X5290D01*
X5010Y2010D02*
X5290D01*
Y1170D02*
Y1450D01*
X5010Y1170D02*
Y1450D01*
Y1730D02*
Y2010D01*
X5290Y1730D02*
Y2010D01*
X3400Y1170D02*
X3680D01*
X3400Y2010D02*
X3680D01*
Y1170D02*
Y1450D01*
X3400Y1170D02*
Y1450D01*
Y1730D02*
Y2010D01*
X3680Y1730D02*
Y2010D01*
X1210Y3170D02*
X1490D01*
X1210Y4010D02*
X1490D01*
Y3170D02*
Y3450D01*
X1210Y3170D02*
Y3450D01*
Y3730D02*
Y4010D01*
X1490Y3730D02*
Y4010D01*
X5420Y2700D02*
Y2980D01*
X4580Y2700D02*
Y2980D01*
X5140D02*
X5420D01*
X5140Y2700D02*
X5420D01*
X4580D02*
X4860D01*
X4580Y2980D02*
X4860D01*
X1210Y2210D02*
X1490D01*
X1210Y1370D02*
X1490D01*
X1210Y1930D02*
Y2210D01*
X1490Y1930D02*
Y2210D01*
Y1370D02*
Y1650D01*
X1210Y1370D02*
Y1650D01*
Y2270D02*
X1490D01*
X1210Y3110D02*
X1490D01*
Y2270D02*
Y2550D01*
X1210Y2270D02*
Y2550D01*
Y2830D02*
Y3110D01*
X1490Y2830D02*
Y3110D01*
X5420Y4100D02*
Y4380D01*
X4580Y4100D02*
Y4380D01*
X5140D02*
X5420D01*
X5140Y4100D02*
X5420D01*
X4580D02*
X4860D01*
X4580Y4380D02*
X4860D01*
X1210Y470D02*
X1490D01*
X1210Y1310D02*
X1490D01*
Y470D02*
Y750D01*
X1210Y470D02*
Y750D01*
Y1030D02*
Y1310D01*
X1490Y1030D02*
Y1310D01*
X860Y3720D02*
X1140D01*
X860Y4560D02*
X1140D01*
Y3720D02*
Y4000D01*
X860Y3720D02*
Y4000D01*
Y4280D02*
Y4560D01*
X1140Y4280D02*
Y4560D01*
X5420Y4450D02*
Y4730D01*
X4580Y4450D02*
Y4730D01*
X5140D02*
X5420D01*
X5140Y4450D02*
X5420D01*
X4580D02*
X4860D01*
X4580Y4730D02*
X4860D01*
X710Y4620D02*
X990D01*
X710Y5460D02*
X990D01*
Y4620D02*
Y4900D01*
X710Y4620D02*
Y4900D01*
Y5180D02*
Y5460D01*
X990Y5180D02*
Y5460D01*
X1060Y4620D02*
X1340D01*
X1060Y5460D02*
X1340D01*
Y4620D02*
Y4900D01*
X1060Y4620D02*
Y4900D01*
Y5180D02*
Y5460D01*
X1340Y5180D02*
Y5460D01*
X3930Y5500D02*
Y5780D01*
X4770Y5500D02*
Y5780D01*
X3930Y5500D02*
X4210D01*
X3930Y5780D02*
X4210D01*
X4490D02*
X4770D01*
X4490Y5500D02*
X4770D01*
X4580Y4800D02*
Y5080D01*
X5420Y4800D02*
Y5080D01*
X4580Y4800D02*
X4860D01*
X4580Y5080D02*
X4860D01*
X5140D02*
X5420D01*
X5140Y4800D02*
X5420D01*
X3930Y5430D02*
X4210D01*
X3930Y5150D02*
X4210D01*
X4490D02*
X4770D01*
X4490Y5430D02*
X4770D01*
X3930Y5150D02*
Y5430D01*
X4770Y5150D02*
Y5430D01*
X3640Y2620D02*
Y2412D01*
X3682Y2370D01*
X3765D01*
X3807Y2412D01*
Y2620D01*
X3890Y2370D02*
X3973D01*
X3932D01*
Y2620D01*
X3890Y2578D01*
X6257Y3738D02*
X6215Y3780D01*
X6132D01*
X6090Y3738D01*
Y3572D01*
X6132Y3530D01*
X6215D01*
X6257Y3572D01*
X6340Y3530D02*
X6423D01*
X6382D01*
Y3780D01*
X6340Y3738D01*
X6715Y3530D02*
X6548D01*
X6715Y3697D01*
Y3738D01*
X6673Y3780D01*
X6590D01*
X6548Y3738D01*
X5840Y3070D02*
Y3320D01*
X5965D01*
X6007Y3278D01*
Y3195D01*
X5965Y3153D01*
X5840D01*
X5923D02*
X6007Y3070D01*
X6257Y3320D02*
X6173Y3278D01*
X6090Y3195D01*
Y3112D01*
X6132Y3070D01*
X6215D01*
X6257Y3112D01*
Y3153D01*
X6215Y3195D01*
X6090D01*
X4180Y760D02*
X4347Y510D01*
Y760D02*
X4180Y510D01*
X4430D02*
X4513D01*
X4472D01*
Y760D01*
X4430Y718D01*
X4910Y730D02*
Y780D01*
Y755D01*
X4760D01*
X4785Y730D01*
X5200Y5520D02*
Y5770D01*
X5325D01*
X5367Y5728D01*
Y5645D01*
X5325Y5603D01*
X5200D01*
X5283D02*
X5367Y5520D01*
X5617Y5770D02*
X5450D01*
Y5645D01*
X5533Y5687D01*
X5575D01*
X5617Y5645D01*
Y5562D01*
X5575Y5520D01*
X5492D01*
X5450Y5562D01*
X5840Y4470D02*
Y4720D01*
X5965D01*
X6007Y4678D01*
Y4595D01*
X5965Y4553D01*
X5840D01*
X5923D02*
X6007Y4470D01*
X6215D02*
Y4720D01*
X6090Y4595D01*
X6257D01*
X5840Y4120D02*
Y4370D01*
X5965D01*
X6007Y4328D01*
Y4245D01*
X5965Y4203D01*
X5840D01*
X5923D02*
X6007Y4120D01*
X6090Y4328D02*
X6132Y4370D01*
X6215D01*
X6257Y4328D01*
Y4287D01*
X6215Y4245D01*
X6173D01*
X6215D01*
X6257Y4203D01*
Y4162D01*
X6215Y4120D01*
X6132D01*
X6090Y4162D01*
X2030Y420D02*
X1780D01*
Y545D01*
X1822Y587D01*
X1905D01*
X1947Y545D01*
Y420D01*
Y503D02*
X2030Y587D01*
Y837D02*
Y670D01*
X1863Y837D01*
X1822D01*
X1780Y795D01*
Y712D01*
X1822Y670D01*
X870Y2490D02*
X1120D01*
Y2657D01*
X912Y2740D02*
X870Y2782D01*
Y2865D01*
X912Y2907D01*
X953D01*
X995Y2865D01*
Y2823D01*
Y2865D01*
X1037Y2907D01*
X1078D01*
X1120Y2865D01*
Y2782D01*
X1078Y2740D01*
X520Y3950D02*
X770D01*
Y4117D01*
Y4367D02*
Y4200D01*
X603Y4367D01*
X562D01*
X520Y4325D01*
Y4242D01*
X562Y4200D01*
X870Y3290D02*
X1120D01*
Y3457D01*
Y3540D02*
Y3623D01*
Y3582D01*
X870D01*
X912Y3540D01*
X2172Y587D02*
X2130Y545D01*
Y462D01*
X2172Y420D01*
X2338D01*
X2380Y462D01*
Y545D01*
X2338Y587D01*
X2380Y670D02*
Y753D01*
Y712D01*
X2130D01*
X2172Y670D01*
X2380Y878D02*
Y961D01*
Y920D01*
X2130D01*
X2172Y878D01*
X2712Y657D02*
X2670Y615D01*
Y532D01*
X2712Y490D01*
X2878D01*
X2920Y532D01*
Y615D01*
X2878Y657D01*
X2920Y740D02*
Y823D01*
Y782D01*
X2670D01*
X2712Y740D01*
Y948D02*
X2670Y990D01*
Y1073D01*
X2712Y1115D01*
X2878D01*
X2920Y1073D01*
Y990D01*
X2878Y948D01*
X2712D01*
X3062Y657D02*
X3020Y615D01*
Y532D01*
X3062Y490D01*
X3228D01*
X3270Y532D01*
Y615D01*
X3228Y657D01*
Y740D02*
X3270Y782D01*
Y865D01*
X3228Y907D01*
X3062D01*
X3020Y865D01*
Y782D01*
X3062Y740D01*
X3103D01*
X3145Y782D01*
Y907D01*
X6007Y2928D02*
X5965Y2970D01*
X5882D01*
X5840Y2928D01*
Y2762D01*
X5882Y2720D01*
X5965D01*
X6007Y2762D01*
X6090Y2928D02*
X6132Y2970D01*
X6215D01*
X6257Y2928D01*
Y2887D01*
X6215Y2845D01*
X6257Y2803D01*
Y2762D01*
X6215Y2720D01*
X6132D01*
X6090Y2762D01*
Y2803D01*
X6132Y2845D01*
X6090Y2887D01*
Y2928D01*
X6132Y2845D02*
X6215D01*
X5367Y5378D02*
X5325Y5420D01*
X5242D01*
X5200Y5378D01*
Y5212D01*
X5242Y5170D01*
X5325D01*
X5367Y5212D01*
X5450Y5420D02*
X5617D01*
Y5378D01*
X5450Y5212D01*
Y5170D01*
X902Y877D02*
X860Y835D01*
Y752D01*
X902Y710D01*
X1068D01*
X1110Y752D01*
Y835D01*
X1068Y877D01*
X860Y1127D02*
X902Y1043D01*
X985Y960D01*
X1068D01*
X1110Y1002D01*
Y1085D01*
X1068Y1127D01*
X1027D01*
X985Y1085D01*
Y960D01*
X912Y1727D02*
X870Y1685D01*
Y1602D01*
X912Y1560D01*
X1078D01*
X1120Y1602D01*
Y1685D01*
X1078Y1727D01*
X870Y1977D02*
Y1810D01*
X995D01*
X953Y1893D01*
Y1935D01*
X995Y1977D01*
X1078D01*
X1120Y1935D01*
Y1852D01*
X1078Y1810D01*
X422Y5017D02*
X380Y4975D01*
Y4892D01*
X422Y4850D01*
X588D01*
X630Y4892D01*
Y4975D01*
X588Y5017D01*
X630Y5225D02*
X380D01*
X505Y5100D01*
Y5267D01*
X1452Y5017D02*
X1410Y4975D01*
Y4892D01*
X1452Y4850D01*
X1618D01*
X1660Y4892D01*
Y4975D01*
X1618Y5017D01*
X1452Y5100D02*
X1410Y5142D01*
Y5225D01*
X1452Y5267D01*
X1493D01*
X1535Y5225D01*
Y5183D01*
Y5225D01*
X1577Y5267D01*
X1618D01*
X1660Y5225D01*
Y5142D01*
X1618Y5100D01*
X5072Y807D02*
X5030Y765D01*
Y682D01*
X5072Y640D01*
X5238D01*
X5280Y682D01*
Y765D01*
X5238Y807D01*
X5280Y1057D02*
Y890D01*
X5113Y1057D01*
X5072D01*
X5030Y1015D01*
Y932D01*
X5072Y890D01*
X3452Y807D02*
X3410Y765D01*
Y682D01*
X3452Y640D01*
X3618D01*
X3660Y682D01*
Y765D01*
X3618Y807D01*
X3660Y890D02*
Y973D01*
Y932D01*
X3410D01*
X3452Y890D01*
X5840Y4820D02*
Y5070D01*
X5965D01*
X6007Y5028D01*
Y4945D01*
X5965Y4903D01*
X5840D01*
X5923D02*
X6007Y4820D01*
X6090Y5070D02*
X6257D01*
Y5028D01*
X6090Y4862D01*
Y4820D01*
D22*
X3750Y1097D02*
Y2047D01*
X4284Y2277D02*
X4430D01*
X4940Y1097D02*
Y2047D01*
X4270Y867D02*
X4408D01*
M02*
