M48
;Layer_Color=9474304
;FILE_FORMAT=2:4
INCH,TZ
;TYPE=PLATED
T1F00S00C0.0160
%
T01
X3990Y640
X4000Y1580
X4690
X5150Y2230
X5640Y2840
X6580
Y2300
Y1320
Y250
X4930
X4030Y2780
X5890Y3710
X6580Y3980
X5640Y4940
X4990Y5500
X5490Y6000
X6580
X4080
X3620Y5420
X3390Y4040
X2740Y4290
X2340
Y3590
X3140Y3240
X3230Y2410
X2260
X2500Y1150
X1950
X3150
X3180Y250
X1350
X250
Y900
Y2190
Y3420
Y4780
Y6000
X830Y5680
X1230
X1940Y6000
X1850Y4790
M30
