%FSLAX24Y24*%
%MOIN*%
G70*
G01*
G75*
G04 Layer_Physical_Order=2*
G04 Layer_Color=16711680*
%ADD10C,0.0070*%
%ADD11O,0.0354X0.0110*%
%ADD12O,0.0110X0.0354*%
%ADD13R,0.0512X0.0591*%
%ADD14R,0.0250X0.0200*%
%ADD15R,0.0433X0.0472*%
%ADD16R,0.0200X0.0250*%
%ADD17C,0.0060*%
%ADD18C,0.0100*%
%ADD19C,0.0300*%
%ADD20C,0.0320*%
D10*
X125Y590D02*
X6705D01*
X125Y640D02*
X6705D01*
X125Y490D02*
X6705D01*
X125Y540D02*
X6705D01*
X125Y790D02*
X6705D01*
X125Y840D02*
X6705D01*
X125Y690D02*
X6705D01*
X125Y740D02*
X6705D01*
X125Y190D02*
X6705D01*
X125Y240D02*
X6705D01*
X125Y125D02*
X6705D01*
X125Y140D02*
X6705D01*
X125Y390D02*
X6705D01*
X125Y440D02*
X6705D01*
X125Y290D02*
X6705D01*
X125Y340D02*
X6705D01*
X125Y990D02*
X6705D01*
X125Y1040D02*
X6705D01*
X125Y890D02*
X6705D01*
X125Y940D02*
X6705D01*
X125Y1190D02*
X6705D01*
X125Y1240D02*
X6705D01*
X125Y1090D02*
X6705D01*
X125Y1140D02*
X6705D01*
X150Y125D02*
Y6125D01*
X125Y125D02*
Y6125D01*
X350Y125D02*
Y6125D01*
X200Y125D02*
Y6125D01*
X300Y125D02*
Y6125D01*
X250Y125D02*
Y6125D01*
X125Y1290D02*
X6705D01*
X125Y1340D02*
X6705D01*
X125Y1890D02*
X6705D01*
X125Y1940D02*
X6705D01*
X125Y1790D02*
X6705D01*
X125Y1840D02*
X6705D01*
X125Y2090D02*
X6705D01*
X125Y2140D02*
X6705D01*
X125Y1990D02*
X6705D01*
X125Y2040D02*
X6705D01*
X125Y1490D02*
X6705D01*
X125Y1540D02*
X6705D01*
X125Y1390D02*
X6705D01*
X125Y1440D02*
X6705D01*
X125Y1690D02*
X6705D01*
X125Y1740D02*
X6705D01*
X125Y1590D02*
X6705D01*
X125Y1640D02*
X6705D01*
X125Y2690D02*
X6705D01*
X125Y2740D02*
X6705D01*
X125Y2590D02*
X6705D01*
X125Y2640D02*
X6705D01*
X125Y2890D02*
X6705D01*
X125Y2940D02*
X6705D01*
X125Y2790D02*
X6705D01*
X125Y2840D02*
X6705D01*
X125Y2290D02*
X6705D01*
X125Y2340D02*
X6705D01*
X125Y2190D02*
X6705D01*
X125Y2240D02*
X6705D01*
X125Y2490D02*
X6705D01*
X125Y2540D02*
X6705D01*
X125Y2390D02*
X6705D01*
X125Y2440D02*
X6705D01*
X125Y5090D02*
X6705D01*
X125Y5140D02*
X6705D01*
X125Y4990D02*
X6705D01*
X125Y5040D02*
X6705D01*
X125Y5290D02*
X6705D01*
X125Y5340D02*
X6705D01*
X125Y5190D02*
X6705D01*
X125Y5240D02*
X6705D01*
X125Y4690D02*
X6705D01*
X125Y4740D02*
X6705D01*
X125Y4590D02*
X6705D01*
X125Y4640D02*
X6705D01*
X125Y4890D02*
X6705D01*
X125Y4940D02*
X6705D01*
X125Y4790D02*
X6705D01*
X125Y4840D02*
X6705D01*
X125Y5890D02*
X6705D01*
X125Y5940D02*
X6705D01*
X125Y5790D02*
X6705D01*
X125Y5840D02*
X6705D01*
X125Y6090D02*
X6705D01*
X125Y6125D02*
X6705D01*
X125Y5990D02*
X6705D01*
X125Y6040D02*
X6705D01*
X125Y5490D02*
X6705D01*
X125Y5540D02*
X6705D01*
X125Y5390D02*
X6705D01*
X125Y5440D02*
X6705D01*
X125Y5690D02*
X6705D01*
X125Y5740D02*
X6705D01*
X125Y5590D02*
X6705D01*
X125Y5640D02*
X6705D01*
X125Y3490D02*
X6705D01*
X125Y3540D02*
X6705D01*
X125Y3390D02*
X6705D01*
X125Y3440D02*
X6705D01*
X125Y3690D02*
X6705D01*
X125Y3740D02*
X6705D01*
X125Y3590D02*
X6705D01*
X125Y3640D02*
X6705D01*
X125Y3090D02*
X6705D01*
X125Y3140D02*
X6705D01*
X125Y2990D02*
X6705D01*
X125Y3040D02*
X6705D01*
X125Y3290D02*
X6705D01*
X125Y3340D02*
X6705D01*
X125Y3190D02*
X6705D01*
X125Y3240D02*
X6705D01*
X125Y4290D02*
X6705D01*
X125Y4340D02*
X6705D01*
X125Y4190D02*
X6705D01*
X125Y4240D02*
X6705D01*
X125Y4490D02*
X6705D01*
X125Y4540D02*
X6705D01*
X125Y4390D02*
X6705D01*
X125Y4440D02*
X6705D01*
X125Y3890D02*
X6705D01*
X125Y3940D02*
X6705D01*
X125Y3790D02*
X6705D01*
X125Y3840D02*
X6705D01*
X125Y4090D02*
X6705D01*
X125Y4140D02*
X6705D01*
X125Y3990D02*
X6705D01*
X125Y4040D02*
X6705D01*
X4650Y125D02*
Y6125D01*
X4600Y125D02*
Y6125D01*
X4750Y125D02*
Y6125D01*
X4700Y125D02*
Y6125D01*
X4450Y125D02*
Y6125D01*
X4400Y125D02*
Y6125D01*
X4550Y125D02*
Y6125D01*
X4500Y125D02*
Y6125D01*
X5050Y125D02*
Y6125D01*
X5000Y125D02*
Y6125D01*
X5150Y125D02*
Y6125D01*
X5100Y125D02*
Y6125D01*
X4850Y125D02*
Y6125D01*
X4800Y125D02*
Y6125D01*
X4950Y125D02*
Y6125D01*
X4900Y125D02*
Y6125D01*
X3850Y125D02*
Y6125D01*
X3800Y125D02*
Y6125D01*
X3950Y125D02*
Y6125D01*
X3900Y125D02*
Y6125D01*
X3650Y125D02*
Y6125D01*
X3600Y125D02*
Y6125D01*
X3750Y125D02*
Y6125D01*
X3700Y125D02*
Y6125D01*
X4250Y125D02*
Y6125D01*
X4200Y125D02*
Y6125D01*
X4350Y125D02*
Y6125D01*
X4300Y125D02*
Y6125D01*
X4050Y125D02*
Y6125D01*
X4000Y125D02*
Y6125D01*
X4150Y125D02*
Y6125D01*
X4100Y125D02*
Y6125D01*
X6250Y125D02*
Y6125D01*
X6200Y125D02*
Y6125D01*
X6350Y125D02*
Y6125D01*
X6300Y125D02*
Y6125D01*
X6050Y125D02*
Y6125D01*
X6000Y125D02*
Y6125D01*
X6150Y125D02*
Y6125D01*
X6100Y125D02*
Y6125D01*
X6650Y125D02*
Y6125D01*
X6600Y125D02*
Y6125D01*
X6705Y125D02*
Y6125D01*
X6700Y125D02*
Y6125D01*
X6450Y125D02*
Y6125D01*
X6400Y125D02*
Y6125D01*
X6550Y125D02*
Y6125D01*
X6500Y125D02*
Y6125D01*
X5450Y125D02*
Y6125D01*
X5400Y125D02*
Y6125D01*
X5550Y125D02*
Y6125D01*
X5500Y125D02*
Y6125D01*
X5250Y125D02*
Y6125D01*
X5200Y125D02*
Y6125D01*
X5350Y125D02*
Y6125D01*
X5300Y125D02*
Y6125D01*
X5850Y125D02*
Y6125D01*
X5800Y125D02*
Y6125D01*
X5950Y125D02*
Y6125D01*
X5900Y125D02*
Y6125D01*
X5650Y125D02*
Y6125D01*
X5600Y125D02*
Y6125D01*
X5750Y125D02*
Y6125D01*
X5700Y125D02*
Y6125D01*
X1450Y125D02*
Y6125D01*
X1400Y125D02*
Y6125D01*
X1550Y125D02*
Y6125D01*
X1500Y125D02*
Y6125D01*
X1250Y125D02*
Y6125D01*
X1200Y125D02*
Y6125D01*
X1350Y125D02*
Y6125D01*
X1300Y125D02*
Y6125D01*
X1850Y125D02*
Y6125D01*
X1800Y125D02*
Y6125D01*
X1950Y125D02*
Y6125D01*
X1900Y125D02*
Y6125D01*
X1650Y125D02*
Y6125D01*
X1600Y125D02*
Y6125D01*
X1750Y125D02*
Y6125D01*
X1700Y125D02*
Y6125D01*
X650Y125D02*
Y6125D01*
X600Y125D02*
Y6125D01*
X750Y125D02*
Y6125D01*
X700Y125D02*
Y6125D01*
X450Y125D02*
Y6125D01*
X400Y125D02*
Y6125D01*
X550Y125D02*
Y6125D01*
X500Y125D02*
Y6125D01*
X1050Y125D02*
Y6125D01*
X1000Y125D02*
Y6125D01*
X1150Y125D02*
Y6125D01*
X1100Y125D02*
Y6125D01*
X850Y125D02*
Y6125D01*
X800Y125D02*
Y6125D01*
X950Y125D02*
Y6125D01*
X900Y125D02*
Y6125D01*
X3050Y125D02*
Y6125D01*
X3000Y125D02*
Y6125D01*
X3150Y125D02*
Y6125D01*
X3100Y125D02*
Y6125D01*
X2850Y125D02*
Y6125D01*
X2800Y125D02*
Y6125D01*
X2950Y125D02*
Y6125D01*
X2900Y125D02*
Y6125D01*
X3450Y125D02*
Y6125D01*
X3400Y125D02*
Y6125D01*
X3550Y125D02*
Y6125D01*
X3500Y125D02*
Y6125D01*
X3250Y125D02*
Y6125D01*
X3200Y125D02*
Y6125D01*
X3350Y125D02*
Y6125D01*
X3300Y125D02*
Y6125D01*
X2250Y125D02*
Y6125D01*
X2200Y125D02*
Y6125D01*
X2350Y125D02*
Y6125D01*
X2300Y125D02*
Y6125D01*
X2050Y125D02*
Y6125D01*
X2000Y125D02*
Y6125D01*
X2150Y125D02*
Y6125D01*
X2100Y125D02*
Y6125D01*
X2650Y125D02*
Y6125D01*
X2600Y125D02*
Y6125D01*
X2750Y125D02*
Y6125D01*
X2700Y125D02*
Y6125D01*
X2450Y125D02*
Y6125D01*
X2400Y125D02*
Y6125D01*
X2550Y125D02*
Y6125D01*
X2500Y125D02*
Y6125D01*
D20*
X4930Y250D02*
D03*
X250Y900D02*
D03*
X1850Y4790D02*
D03*
X4990Y5500D02*
D03*
X6580Y3980D02*
D03*
X5150Y2230D02*
D03*
X6580Y6000D02*
D03*
X5640Y4940D02*
D03*
Y2840D02*
D03*
X5890Y3710D02*
D03*
X4080Y6000D02*
D03*
X3620Y5420D02*
D03*
X250Y6000D02*
D03*
X4690Y1580D02*
D03*
X3230Y2410D02*
D03*
X6580Y2840D02*
D03*
X4000Y1580D02*
D03*
X3180Y250D02*
D03*
X1350D02*
D03*
X6580D02*
D03*
X4030Y2780D02*
D03*
X2340Y3590D02*
D03*
X3390Y4040D02*
D03*
X2340Y4290D02*
D03*
X3140Y3240D02*
D03*
X2740Y4290D02*
D03*
X2260Y2410D02*
D03*
X1230Y5680D02*
D03*
X5490Y6000D02*
D03*
X1940D02*
D03*
X3990Y640D02*
D03*
X3150Y1150D02*
D03*
X830Y5680D02*
D03*
X250Y250D02*
D03*
X1950Y1150D02*
D03*
X2500D02*
D03*
X250Y4780D02*
D03*
Y2190D02*
D03*
Y3420D02*
D03*
X6580Y2300D02*
D03*
Y1320D02*
D03*
M02*
